<svg version="1.1" id="Layer_1" xmlns="http://www.w3.org/2000/svg" xmlns:xlink="http://www.w3.org/1999/xlink" viewBox="0 0 512 512" xml:space="preserve" width="64px" height="64px" fill="#000000" transform="matrix(1, 0, 0, 1, 0, 0)" stroke="#000000"><g id="SVGRepo_bgCarrier" stroke-width="0"></g><g id="SVGRepo_tracerCarrier" stroke-linecap="round" stroke-linejoin="round"></g><g id="SVGRepo_iconCarrier"> <g> <rect x="39.742" y="362.151" style="fill:#c2c0ce;" width="33.391" height="58.246"></rect> <rect x="133.498" y="362.151" style="fill:#c2c0ce;" width="33.391" height="58.246"></rect> <rect x="86.628" y="362.151" style="fill:#c2c0ce;" width="33.391" height="96.968"></rect> </g> <g> <rect x="341.693" y="362.151" style="fill:#c2c0ce;" width="33.391" height="58.246"></rect> <rect x="435.456" y="362.151" style="fill:#c2c0ce;" width="33.391" height="58.246"></rect> <rect x="388.575" y="362.151" style="fill:#c2c0ce;" width="33.391" height="96.968"></rect> </g> <path style="fill:#C822FF;" d="M385.586,151.837l-49-98.956H104.055L55.58,150.78H0v139.33h29.978h25.257H453.35h25.258H512V165.195 L385.586,151.837z"></path> <path style="fill:#ba3df0;" d="M385.586,151.837l-49-98.956H220.32v237.228h233.03h25.258H512V165.195L385.586,151.837z"></path> <polygon style="fill:#c2c0ce;" points="347.802,150.778 237.016,150.778 237.016,86.271 315.859,86.271 "></polygon> <polygon style="fill:#c2c0ce;" points="124.781,86.271 203.625,86.271 203.625,150.778 92.84,150.778 "></polygon> <path style="fill:#6F6F6F;" d="M103.319,329.065c-30.687,0-55.652-24.966-55.652-55.652s24.966-55.652,55.652-55.652 s55.652,24.966,55.652,55.652S134.006,329.065,103.319,329.065z"></path> <path style="fill:#7a7a7a;" d="M405.266,329.066c-30.687,0-55.652-24.966-55.652-55.652s24.966-55.652,55.652-55.652 s55.652,24.966,55.652,55.652S435.952,329.066,405.266,329.066z"></path> </g></svg>